<svg width="297" height="34" viewBox="0 0 297 34" fill="none" xmlns="http://www.w3.org/2000/svg">
<path d="M17.5696 13.4631C8.90281 19.2041 1.3401 24.5036 0.843282 25.2212C-1.1992 28.2021 0.622473 31.9559 4.65224 32.9495C6.74992 33.4463 31.2597 33.5567 32.0878 33.1151C32.3086 32.9495 31.7013 31.7351 30.7629 30.4102L28.9964 27.9261H19.1152C8.95801 27.9261 7.13634 27.5949 7.13634 25.718C7.13634 24.5036 8.5164 23.3995 17.0175 17.9897C21.8201 14.8432 23.4762 14.0703 24.1386 14.4567C24.6355 14.788 27.5612 18.7625 30.7077 23.2891C33.8542 27.8157 36.78 31.9559 37.2216 32.4527C37.9392 33.3359 39.2089 33.4463 47.8756 33.4463C53.2854 33.4463 57.8672 33.2807 58.0328 33.1151C58.364 32.7839 39.6505 5.29317 38.3808 4.18912C37.884 3.85791 36.6143 3.41629 35.4551 3.30589C33.4678 3.02988 32.3086 3.6923 17.5696 13.4631Z" fill="#A8A8A8"/>
<path d="M90.7123 5.73421C88.6146 7.16947 85.5233 9.32236 83.8672 10.5368C82.2111 11.6961 77.4637 15.0082 73.3788 17.8787C64.712 24.0062 62.5039 25.9382 61.4551 28.2567C60.0198 31.6793 61.7863 33.4457 66.7545 33.4457C69.7354 33.4457 70.0114 33.2249 68.5762 31.6793C67.4169 30.3544 67.5273 27.7599 68.8522 25.8278C69.4594 24.9998 73.5444 21.8533 77.9606 18.8724C84.9161 14.1802 86.1305 13.5177 86.9033 14.125C87.4002 14.5114 90.3811 18.7067 93.5828 23.4541C96.7845 28.2015 99.8207 32.3969 100.317 32.7281C101.311 33.501 120.025 33.777 120.466 33.0041C120.742 32.5073 104.016 8.05271 101.366 5.12699C99.7655 3.36052 99.2134 3.08451 97.0605 3.08451C94.9629 3.08451 93.914 3.52612 90.7123 5.73421Z" fill="#A8A8A8"/>
<path d="M115.333 3.4159C115.333 3.5815 116.106 4.79595 116.989 6.12081L118.7 8.60491L128.195 8.71531C137.248 8.88092 137.69 8.93612 137.855 9.98496C137.911 10.5922 136.31 15.9468 134.157 21.8535C132.059 27.7601 130.569 32.8387 130.79 33.0595C131.01 33.3355 134.543 33.4459 138.573 33.3355L145.915 33.1699L147.405 29.0297C148.233 26.7665 150.11 21.5222 151.546 17.4373C152.981 13.3523 154.416 9.65375 154.692 9.26733C155.079 8.77051 157.673 8.60491 164.132 8.60491H173.075L173.792 6.50722C174.234 5.40318 174.675 4.13352 174.786 3.74711C175.007 3.25029 168.879 3.08468 145.197 3.08468C128.747 3.08468 115.333 3.25029 115.333 3.4159Z" fill="#A8A8A8"/>
<path d="M185.716 3.85791C184.777 4.24433 183.784 4.90676 183.453 5.34837C183.066 5.78999 180.913 11.531 178.595 18.1001C174.013 31.4038 173.903 32.4527 177.159 33.1151C178.153 33.2807 186.489 33.4463 195.707 33.4463H212.489L213.041 32.0111C213.372 31.2382 213.593 30.355 213.593 30.079C213.593 29.803 208.846 29.5822 202 29.5822C195.652 29.5822 190.408 29.3614 190.408 29.1405C190.408 28.9197 191.015 26.9877 191.678 24.8348L193.003 21.0258L201.117 20.8602L209.232 20.6946L209.729 19.3145C210.06 18.5417 210.281 17.6585 210.281 17.3825C210.281 17.1065 206.969 16.8856 202.497 16.8856H194.714L195.1 15.3952C195.266 14.5672 195.983 12.8007 196.646 11.4206L197.86 8.88132L208.79 8.60531L219.776 8.3293L220.548 6.12121C220.935 4.90676 221.321 3.74751 221.321 3.4715C221.321 3.25069 213.703 3.08508 204.374 3.08508C191.622 3.14028 186.93 3.30589 185.716 3.85791Z" fill="#A8A8A8"/>
<path d="M230.706 5.12757C231.755 6.28681 235.453 10.151 238.931 13.6839C242.409 17.2721 245.169 20.253 245.058 20.3634C244.893 20.529 239.869 23.2891 233.908 26.546C227.891 29.8582 222.978 32.7287 222.978 33.0047C222.978 33.2255 224.302 33.4463 225.903 33.4463C228.498 33.4463 229.712 32.9495 238.324 28.2021L247.874 22.9579L252.732 28.0917L257.645 33.1703L266.477 33.2807C271.39 33.3911 275.475 33.2255 275.64 33.0047C275.751 32.7839 272.384 29.0853 268.133 24.7244C263.882 20.4186 260.515 16.6096 260.625 16.3336C260.736 16.0024 263.882 14.0703 267.636 12.0278C273.708 8.71571 274.536 8.10849 275.254 6.23161C275.751 5.07236 275.972 4.02352 275.861 3.85791C275.696 3.74751 271.5 5.84519 266.532 8.55011L257.534 13.5183L252.787 8.93652C247.101 3.4715 245.997 3.08508 235.564 3.08508H228.829L230.706 5.12757Z" fill="#A8A8A8"/>
<g clip-path="url(#clip0_38_3)">
<path d="M290.205 12.6411C293.482 12.6411 296.14 9.98392 296.14 6.7061C296.14 3.42829 293.482 0.771093 290.205 0.771093C286.927 0.771093 284.27 3.42829 284.27 6.7061C284.27 9.98392 286.927 12.6411 290.205 12.6411Z" stroke="#A8A8A8" stroke-width="1.34124"/>
<path d="M289.843 6.16981C290.212 6.16981 290.48 6.09604 290.641 5.95521C290.802 5.82109 290.889 5.59307 290.889 5.27117C290.889 4.95598 290.802 4.73468 290.641 4.59385C290.48 4.45972 290.212 4.39266 289.843 4.39266H289.092V6.16981H289.843ZM289.092 7.39705V10.0125H287.308V3.09836H290.03C290.942 3.09836 291.606 3.2526 292.029 3.56109C292.458 3.86287 292.666 4.34572 292.666 5.00963C292.666 5.46565 292.559 5.8412 292.337 6.13628C292.116 6.42465 291.787 6.64595 291.338 6.78007C291.586 6.84043 291.801 6.96785 291.995 7.16233C292.19 7.35681 292.384 7.65188 292.579 8.05426L293.551 10.0125H291.653L290.808 8.29568C290.641 7.95366 290.466 7.71224 290.292 7.59153C290.118 7.46411 289.883 7.39705 289.595 7.39705H289.092Z" fill="#A8A8A8"/>
</g>
<defs>
<clipPath id="clip0_38_3">
<rect width="13.4124" height="13.4124" fill="white" transform="translate(283.499 -0.000156403)"/>
</clipPath>
</defs>
</svg>
